<?xml version='1.0' encoding='iso-8859-1'?>
<svg version="1.1" xmlns="http://www.w3.org/2000/svg" viewBox="0 0 226.216 226.216" xmlns:xlink="http://www.w3.org/1999/xlink" enable-background="new 0 0 226.216 226.216">
  <g>
    <g>
      <path d="M8.701,43.503h208.814c5.22,0,8.701-3.48,8.701-8.701s-3.48-8.701-8.701-8.701H8.701C3.48,26.102,0,29.582,0,34.802    S3.48,43.503,8.701,43.503z"/>
      <path d="m217.515,104.407h-208.814c-5.22,0-8.701,3.48-8.701,8.701s3.48,8.701 8.701,8.701h208.814c5.22,0 8.701-3.48 8.701-8.701s-3.481-8.701-8.701-8.701z"/>
      <path d="m217.515,182.713h-208.814c-5.22,0-8.701,3.48-8.701,8.701s3.48,8.701 8.701,8.701h208.814c5.22,0 8.701-3.48 8.701-8.701s-3.481-8.701-8.701-8.701z"/>
    </g>
  </g>
</svg>
